<mxfile host="app.diagrams.net" modified="2023-12-05T03:01:06.250Z" agent="Mozilla/5.0 (Windows NT 10.0; Win64; x64) AppleWebKit/537.36 (KHTML, like Gecko) Chrome/118.0.0.0 Safari/537.36" etag="TJ9c6mRAVn3nksWOnrOT" version="22.1.5" type="github">
  <diagram id="C5RBs43oDa-KdzZeNtuy" name="Page-1">
    <mxGraphModel dx="2117" dy="920" grid="1" gridSize="10" guides="1" tooltips="1" connect="1" arrows="1" fold="1" page="0" pageScale="1" pageWidth="827" pageHeight="1169" math="0" shadow="0">
      <root>
        <mxCell id="WIyWlLk6GJQsqaUBKTNV-0" />
        <mxCell id="WIyWlLk6GJQsqaUBKTNV-1" parent="WIyWlLk6GJQsqaUBKTNV-0" />
        <mxCell id="E-Mk3-1XfCoqqupNHNzq-80" value="" style="group;fillColor=default;strokeColor=default;connectable=1;container=1;" vertex="1" connectable="0" parent="WIyWlLk6GJQsqaUBKTNV-1">
          <mxGeometry x="163" y="728" width="260" height="90" as="geometry" />
        </mxCell>
        <mxCell id="E-Mk3-1XfCoqqupNHNzq-7" value="MQ消费消息发送腾讯云SES邮件" style="rounded=1;whiteSpace=wrap;html=1;" vertex="1" parent="E-Mk3-1XfCoqqupNHNzq-80">
          <mxGeometry x="20.3" y="25.71857142857143" width="219.4092827004219" height="38.57142857142858" as="geometry" />
        </mxCell>
        <mxCell id="WIyWlLk6GJQsqaUBKTNV-2" value="" style="rounded=0;html=1;jettySize=auto;orthogonalLoop=1;fontSize=11;endArrow=block;endFill=0;endSize=8;strokeWidth=1;shadow=0;labelBackgroundColor=none;edgeStyle=orthogonalEdgeStyle;" parent="WIyWlLk6GJQsqaUBKTNV-1" source="WIyWlLk6GJQsqaUBKTNV-3" target="WIyWlLk6GJQsqaUBKTNV-6" edge="1">
          <mxGeometry relative="1" as="geometry" />
        </mxCell>
        <mxCell id="WIyWlLk6GJQsqaUBKTNV-3" value="Lamp doesn&#39;t work" style="rounded=1;whiteSpace=wrap;html=1;fontSize=12;glass=0;strokeWidth=1;shadow=0;" parent="WIyWlLk6GJQsqaUBKTNV-1" vertex="1">
          <mxGeometry x="160" y="80" width="120" height="40" as="geometry" />
        </mxCell>
        <mxCell id="WIyWlLk6GJQsqaUBKTNV-4" value="Yes" style="rounded=0;html=1;jettySize=auto;orthogonalLoop=1;fontSize=11;endArrow=block;endFill=0;endSize=8;strokeWidth=1;shadow=0;labelBackgroundColor=none;edgeStyle=orthogonalEdgeStyle;" parent="WIyWlLk6GJQsqaUBKTNV-1" source="WIyWlLk6GJQsqaUBKTNV-6" target="WIyWlLk6GJQsqaUBKTNV-10" edge="1">
          <mxGeometry y="20" relative="1" as="geometry">
            <mxPoint as="offset" />
          </mxGeometry>
        </mxCell>
        <mxCell id="WIyWlLk6GJQsqaUBKTNV-5" value="No" style="edgeStyle=orthogonalEdgeStyle;rounded=0;html=1;jettySize=auto;orthogonalLoop=1;fontSize=11;endArrow=block;endFill=0;endSize=8;strokeWidth=1;shadow=0;labelBackgroundColor=none;" parent="WIyWlLk6GJQsqaUBKTNV-1" source="WIyWlLk6GJQsqaUBKTNV-6" target="WIyWlLk6GJQsqaUBKTNV-7" edge="1">
          <mxGeometry y="10" relative="1" as="geometry">
            <mxPoint as="offset" />
          </mxGeometry>
        </mxCell>
        <mxCell id="WIyWlLk6GJQsqaUBKTNV-6" value="Lamp&lt;br&gt;plugged in?" style="rhombus;whiteSpace=wrap;html=1;shadow=0;fontFamily=Helvetica;fontSize=12;align=center;strokeWidth=1;spacing=6;spacingTop=-4;" parent="WIyWlLk6GJQsqaUBKTNV-1" vertex="1">
          <mxGeometry x="170" y="170" width="100" height="80" as="geometry" />
        </mxCell>
        <mxCell id="WIyWlLk6GJQsqaUBKTNV-7" value="Plug in lamp" style="rounded=1;whiteSpace=wrap;html=1;fontSize=12;glass=0;strokeWidth=1;shadow=0;" parent="WIyWlLk6GJQsqaUBKTNV-1" vertex="1">
          <mxGeometry x="320" y="190" width="120" height="40" as="geometry" />
        </mxCell>
        <mxCell id="WIyWlLk6GJQsqaUBKTNV-8" value="No" style="rounded=0;html=1;jettySize=auto;orthogonalLoop=1;fontSize=11;endArrow=block;endFill=0;endSize=8;strokeWidth=1;shadow=0;labelBackgroundColor=none;edgeStyle=orthogonalEdgeStyle;" parent="WIyWlLk6GJQsqaUBKTNV-1" source="WIyWlLk6GJQsqaUBKTNV-10" target="WIyWlLk6GJQsqaUBKTNV-11" edge="1">
          <mxGeometry x="0.3333" y="20" relative="1" as="geometry">
            <mxPoint as="offset" />
          </mxGeometry>
        </mxCell>
        <mxCell id="WIyWlLk6GJQsqaUBKTNV-9" value="Yes" style="edgeStyle=orthogonalEdgeStyle;rounded=0;html=1;jettySize=auto;orthogonalLoop=1;fontSize=11;endArrow=block;endFill=0;endSize=8;strokeWidth=1;shadow=0;labelBackgroundColor=none;" parent="WIyWlLk6GJQsqaUBKTNV-1" source="WIyWlLk6GJQsqaUBKTNV-10" target="WIyWlLk6GJQsqaUBKTNV-12" edge="1">
          <mxGeometry y="10" relative="1" as="geometry">
            <mxPoint as="offset" />
          </mxGeometry>
        </mxCell>
        <mxCell id="WIyWlLk6GJQsqaUBKTNV-10" value="Bulb&lt;br&gt;burned out?" style="rhombus;whiteSpace=wrap;html=1;shadow=0;fontFamily=Helvetica;fontSize=12;align=center;strokeWidth=1;spacing=6;spacingTop=-4;" parent="WIyWlLk6GJQsqaUBKTNV-1" vertex="1">
          <mxGeometry x="170" y="290" width="100" height="80" as="geometry" />
        </mxCell>
        <mxCell id="WIyWlLk6GJQsqaUBKTNV-11" value="Repair Lamp" style="rounded=1;whiteSpace=wrap;html=1;fontSize=12;glass=0;strokeWidth=1;shadow=0;" parent="WIyWlLk6GJQsqaUBKTNV-1" vertex="1">
          <mxGeometry x="160" y="430" width="120" height="40" as="geometry" />
        </mxCell>
        <mxCell id="WIyWlLk6GJQsqaUBKTNV-12" value="Replace Bulb" style="rounded=1;whiteSpace=wrap;html=1;fontSize=12;glass=0;strokeWidth=1;shadow=0;" parent="WIyWlLk6GJQsqaUBKTNV-1" vertex="1">
          <mxGeometry x="320" y="310" width="120" height="40" as="geometry" />
        </mxCell>
        <mxCell id="E-Mk3-1XfCoqqupNHNzq-5" style="edgeStyle=orthogonalEdgeStyle;rounded=0;orthogonalLoop=1;jettySize=auto;html=1;entryX=0.5;entryY=0;entryDx=0;entryDy=0;" edge="1" parent="WIyWlLk6GJQsqaUBKTNV-1" source="E-Mk3-1XfCoqqupNHNzq-1" target="E-Mk3-1XfCoqqupNHNzq-3">
          <mxGeometry relative="1" as="geometry" />
        </mxCell>
        <mxCell id="E-Mk3-1XfCoqqupNHNzq-6" style="edgeStyle=orthogonalEdgeStyle;rounded=0;orthogonalLoop=1;jettySize=auto;html=1;entryX=0.5;entryY=0;entryDx=0;entryDy=0;" edge="1" parent="WIyWlLk6GJQsqaUBKTNV-1" source="E-Mk3-1XfCoqqupNHNzq-2" target="E-Mk3-1XfCoqqupNHNzq-3">
          <mxGeometry relative="1" as="geometry" />
        </mxCell>
        <mxCell id="E-Mk3-1XfCoqqupNHNzq-8" value="" style="edgeStyle=orthogonalEdgeStyle;rounded=0;orthogonalLoop=1;jettySize=auto;html=1;" edge="1" parent="WIyWlLk6GJQsqaUBKTNV-1" source="E-Mk3-1XfCoqqupNHNzq-3" target="E-Mk3-1XfCoqqupNHNzq-7">
          <mxGeometry relative="1" as="geometry" />
        </mxCell>
        <mxCell id="E-Mk3-1XfCoqqupNHNzq-3" value="推送MQ消息准备发送腾讯云SES邮件" style="rounded=1;whiteSpace=wrap;html=1;" vertex="1" parent="WIyWlLk6GJQsqaUBKTNV-1">
          <mxGeometry x="183" y="655" width="220" height="30" as="geometry" />
        </mxCell>
        <mxCell id="E-Mk3-1XfCoqqupNHNzq-17" value="" style="edgeStyle=orthogonalEdgeStyle;rounded=0;orthogonalLoop=1;jettySize=auto;html=1;" edge="1" parent="WIyWlLk6GJQsqaUBKTNV-1" source="E-Mk3-1XfCoqqupNHNzq-7" target="E-Mk3-1XfCoqqupNHNzq-16">
          <mxGeometry relative="1" as="geometry" />
        </mxCell>
        <mxCell id="E-Mk3-1XfCoqqupNHNzq-19" value="" style="edgeStyle=orthogonalEdgeStyle;rounded=0;orthogonalLoop=1;jettySize=auto;html=1;exitX=0.5;exitY=1;exitDx=0;exitDy=0;entryX=1;entryY=0.5;entryDx=0;entryDy=0;" edge="1" parent="WIyWlLk6GJQsqaUBKTNV-1">
          <mxGeometry relative="1" as="geometry">
            <mxPoint x="293.0046413502114" y="795.2900000000002" as="sourcePoint" />
            <mxPoint x="400" y="1116" as="targetPoint" />
            <Array as="points">
              <mxPoint x="293" y="831" />
              <mxPoint x="460" y="831" />
              <mxPoint x="460" y="1116" />
            </Array>
          </mxGeometry>
        </mxCell>
        <mxCell id="E-Mk3-1XfCoqqupNHNzq-20" value="发送成功" style="edgeLabel;html=1;align=center;verticalAlign=middle;resizable=0;points=[];" vertex="1" connectable="0" parent="E-Mk3-1XfCoqqupNHNzq-19">
          <mxGeometry x="-0.0417" width="70" height="30" relative="1" as="geometry">
            <mxPoint x="-127" y="-73" as="offset" />
          </mxGeometry>
        </mxCell>
        <mxCell id="E-Mk3-1XfCoqqupNHNzq-26" value="" style="edgeStyle=orthogonalEdgeStyle;rounded=0;orthogonalLoop=1;jettySize=auto;html=1;" edge="1" parent="WIyWlLk6GJQsqaUBKTNV-1" source="E-Mk3-1XfCoqqupNHNzq-7" target="E-Mk3-1XfCoqqupNHNzq-25">
          <mxGeometry relative="1" as="geometry" />
        </mxCell>
        <mxCell id="E-Mk3-1XfCoqqupNHNzq-28" value="发送失败" style="edgeLabel;html=1;align=center;verticalAlign=middle;resizable=0;points=[];" vertex="1" connectable="0" parent="E-Mk3-1XfCoqqupNHNzq-26">
          <mxGeometry x="0.1184" y="3" width="70" height="30" relative="1" as="geometry">
            <mxPoint x="-23" y="-18" as="offset" />
          </mxGeometry>
        </mxCell>
        <mxCell id="E-Mk3-1XfCoqqupNHNzq-9" value="" style="group" vertex="1" connectable="0" parent="WIyWlLk6GJQsqaUBKTNV-1">
          <mxGeometry x="185" y="555" width="215" height="30.000000000000114" as="geometry" />
        </mxCell>
        <mxCell id="E-Mk3-1XfCoqqupNHNzq-1" value="SDK方式" style="rounded=1;whiteSpace=wrap;html=1;fontSize=12;glass=0;strokeWidth=1;shadow=0;" vertex="1" parent="E-Mk3-1XfCoqqupNHNzq-9">
          <mxGeometry y="1.1368683772161603e-13" width="70" height="30" as="geometry" />
        </mxCell>
        <mxCell id="E-Mk3-1XfCoqqupNHNzq-2" value="HTTP方式&lt;br&gt;" style="rounded=1;whiteSpace=wrap;html=1;" vertex="1" parent="E-Mk3-1XfCoqqupNHNzq-9">
          <mxGeometry x="135" width="80" height="30" as="geometry" />
        </mxCell>
        <mxCell id="E-Mk3-1XfCoqqupNHNzq-60" style="edgeStyle=orthogonalEdgeStyle;rounded=0;orthogonalLoop=1;jettySize=auto;html=1;entryX=0.5;entryY=0;entryDx=0;entryDy=0;" edge="1" parent="WIyWlLk6GJQsqaUBKTNV-1" source="E-Mk3-1XfCoqqupNHNzq-16" target="E-Mk3-1XfCoqqupNHNzq-18">
          <mxGeometry relative="1" as="geometry" />
        </mxCell>
        <mxCell id="E-Mk3-1XfCoqqupNHNzq-16" value="推送延迟消息" style="rounded=1;whiteSpace=wrap;html=1;" vertex="1" parent="WIyWlLk6GJQsqaUBKTNV-1">
          <mxGeometry x="575" y="758" width="170" height="30" as="geometry" />
        </mxCell>
        <mxCell id="E-Mk3-1XfCoqqupNHNzq-63" style="edgeStyle=orthogonalEdgeStyle;rounded=0;orthogonalLoop=1;jettySize=auto;html=1;" edge="1" parent="WIyWlLk6GJQsqaUBKTNV-1" source="E-Mk3-1XfCoqqupNHNzq-18">
          <mxGeometry relative="1" as="geometry">
            <mxPoint x="860" y="1045" as="targetPoint" />
          </mxGeometry>
        </mxCell>
        <mxCell id="E-Mk3-1XfCoqqupNHNzq-64" value="非最终状态" style="edgeLabel;html=1;align=center;verticalAlign=middle;resizable=0;points=[];" vertex="1" connectable="0" parent="E-Mk3-1XfCoqqupNHNzq-63">
          <mxGeometry x="-0.1916" y="-2" relative="1" as="geometry">
            <mxPoint y="-2" as="offset" />
          </mxGeometry>
        </mxCell>
        <mxCell id="E-Mk3-1XfCoqqupNHNzq-18" value="查询腾讯云SES邮件发送状态&lt;br&gt;" style="rounded=1;whiteSpace=wrap;html=1;" vertex="1" parent="WIyWlLk6GJQsqaUBKTNV-1">
          <mxGeometry x="570" y="1030" width="180" height="30" as="geometry" />
        </mxCell>
        <mxCell id="E-Mk3-1XfCoqqupNHNzq-47" value="" style="edgeStyle=orthogonalEdgeStyle;rounded=0;orthogonalLoop=1;jettySize=auto;html=1;" edge="1" parent="WIyWlLk6GJQsqaUBKTNV-1" source="E-Mk3-1XfCoqqupNHNzq-25" target="E-Mk3-1XfCoqqupNHNzq-46">
          <mxGeometry relative="1" as="geometry" />
        </mxCell>
        <mxCell id="E-Mk3-1XfCoqqupNHNzq-52" value="是" style="edgeLabel;html=1;align=center;verticalAlign=middle;resizable=0;points=[];" vertex="1" connectable="0" parent="E-Mk3-1XfCoqqupNHNzq-47">
          <mxGeometry x="-0.2952" y="-2" width="30" height="30" relative="1" as="geometry">
            <mxPoint x="-38" y="-15" as="offset" />
          </mxGeometry>
        </mxCell>
        <mxCell id="E-Mk3-1XfCoqqupNHNzq-58" style="edgeStyle=orthogonalEdgeStyle;rounded=0;orthogonalLoop=1;jettySize=auto;html=1;entryX=0.5;entryY=0;entryDx=0;entryDy=0;" edge="1" parent="WIyWlLk6GJQsqaUBKTNV-1" source="E-Mk3-1XfCoqqupNHNzq-25" target="E-Mk3-1XfCoqqupNHNzq-48">
          <mxGeometry relative="1" as="geometry" />
        </mxCell>
        <mxCell id="E-Mk3-1XfCoqqupNHNzq-25" value="是否达到最大重试次数" style="rounded=1;whiteSpace=wrap;html=1;" vertex="1" parent="WIyWlLk6GJQsqaUBKTNV-1">
          <mxGeometry x="60" y="870" width="140" height="30" as="geometry" />
        </mxCell>
        <mxCell id="E-Mk3-1XfCoqqupNHNzq-59" style="edgeStyle=orthogonalEdgeStyle;rounded=0;orthogonalLoop=1;jettySize=auto;html=1;entryX=0.5;entryY=0;entryDx=0;entryDy=0;" edge="1" parent="WIyWlLk6GJQsqaUBKTNV-1" source="E-Mk3-1XfCoqqupNHNzq-46" target="E-Mk3-1XfCoqqupNHNzq-56">
          <mxGeometry relative="1" as="geometry" />
        </mxCell>
        <mxCell id="E-Mk3-1XfCoqqupNHNzq-46" value="消息ACK&lt;br&gt;腾讯云SES邮件最终状态为发送失败" style="rounded=1;whiteSpace=wrap;html=1;" vertex="1" parent="WIyWlLk6GJQsqaUBKTNV-1">
          <mxGeometry x="220" y="990" width="220" height="40" as="geometry" />
        </mxCell>
        <mxCell id="E-Mk3-1XfCoqqupNHNzq-81" style="edgeStyle=orthogonalEdgeStyle;rounded=0;orthogonalLoop=1;jettySize=auto;html=1;entryX=0;entryY=0.5;entryDx=0;entryDy=0;" edge="1" parent="WIyWlLk6GJQsqaUBKTNV-1" source="E-Mk3-1XfCoqqupNHNzq-48" target="E-Mk3-1XfCoqqupNHNzq-7">
          <mxGeometry relative="1" as="geometry">
            <Array as="points">
              <mxPoint x="-90" y="1005" />
              <mxPoint x="-90" y="775" />
            </Array>
          </mxGeometry>
        </mxCell>
        <mxCell id="E-Mk3-1XfCoqqupNHNzq-48" value="抛出异常，中断消息ACK操作" style="rounded=1;whiteSpace=wrap;html=1;" vertex="1" parent="WIyWlLk6GJQsqaUBKTNV-1">
          <mxGeometry x="-10" y="990" width="180" height="30" as="geometry" />
        </mxCell>
        <mxCell id="E-Mk3-1XfCoqqupNHNzq-56" value="执行消息发送后置动作" style="rounded=1;whiteSpace=wrap;html=1;" vertex="1" parent="WIyWlLk6GJQsqaUBKTNV-1">
          <mxGeometry x="260" y="1100" width="140" height="30" as="geometry" />
        </mxCell>
      </root>
    </mxGraphModel>
  </diagram>
</mxfile>
